# xmcd
#
# Track frame offsets:
#	150
#	16123
#	34716
#	47055
#	62754
#	82413
#	97092
#	112124
#	130088
#	149315
#	169088
#	189125
#
# Disc length: 2672 seconds
#
# Revision: 1
# Processed by: cddbd v1.5.1PL0 Copyright (c) Steve Scherf et al.
# Submitted via: dBpowerAMP V4.0
#
DISCID=a20a6e0c
DTITLE=Rachael Sage - Selections: 1996-2003
DYEAR=2003
DGENRE=Alternative Pop
TTITLE0=What If
TTITLE1=Bravedancing
TTITLE2=Trouble
TTITLE3=Unbeauty
TTITLE4=Pictures They Took
TTITLE5=Sistersong
TTITLE6=The Spirit We
TTITLE7=Too Many Women
TTITLE8=Angel
TTITLE9=Ode To A Sailor
TTITLE10=Sara's Song
TTITLE11=Conversation
EXTD=
EXTT0=
EXTT1=
EXTT2=
EXTT3=
EXTT4=
EXTT5=
EXTT6=
EXTT7=
EXTT8=
EXTT9=
EXTT10=
EXTT11=
PLAYORDER=
